<mxfile host="app.diagrams.net" modified="2022-09-29T20:38:21.380Z" agent="5.0 (Windows NT 10.0; Win64; x64) AppleWebKit/537.36 (KHTML, like Gecko) Chrome/105.0.0.0 Safari/537.36 Edg/105.0.1343.53" etag="khkJBIlRGks7uSDa9IQc" version="20.3.7" type="github">
  <diagram id="vmtDCzpMv78OBeDdNWP4" name="Seite-1">
    <mxGraphModel dx="781" dy="475" grid="1" gridSize="10" guides="1" tooltips="1" connect="1" arrows="1" fold="1" page="1" pageScale="1" pageWidth="827" pageHeight="1169" math="0" shadow="0">
      <root>
        <mxCell id="0" />
        <mxCell id="1" parent="0" />
        <mxCell id="eSkPvR_jeUElCTXZOyvd-1" value="" style="verticalLabelPosition=bottom;html=1;verticalAlign=top;align=center;strokeColor=none;fillColor=#00BEF2;shape=mxgraph.azure.laptop;pointerEvents=1;" vertex="1" parent="1">
          <mxGeometry x="320" y="230" width="110" height="80" as="geometry" />
        </mxCell>
        <mxCell id="eSkPvR_jeUElCTXZOyvd-5" value="" style="shape=image;verticalLabelPosition=bottom;labelBackgroundColor=default;verticalAlign=top;aspect=fixed;imageAspect=0;image=https://cdn1.iconfinder.com/data/icons/65-hand-drawn-gardening-icons/64/gardening_62-1024.png;" vertex="1" parent="1">
          <mxGeometry x="410" y="60" width="180" height="180" as="geometry" />
        </mxCell>
      </root>
    </mxGraphModel>
  </diagram>
</mxfile>
